<mxfile>
    <diagram id="Z8WcDIITVTDBvYcgrsr8" name="class_diagram">
        <mxGraphModel dx="681" dy="670" grid="0" gridSize="10" guides="1" tooltips="1" connect="1" arrows="1" fold="1" page="1" pageScale="1" pageWidth="850" pageHeight="1100" math="0" shadow="0">
            <root>
                <mxCell id="0"/>
                <mxCell id="1" parent="0"/>
                <mxCell id="2" value="&lt;&lt;Interface&gt;&gt;" style="swimlane;fontStyle=1;align=center;verticalAlign=top;childLayout=stackLayout;horizontal=1;startSize=26;horizontalStack=0;resizeParent=1;resizeParentMax=0;resizeLast=0;collapsible=1;marginBottom=0;" parent="1" vertex="1">
                    <mxGeometry x="345" y="30" width="160" height="216" as="geometry"/>
                </mxCell>
                <mxCell id="4" value="" style="line;strokeWidth=1;fillColor=none;align=left;verticalAlign=middle;spacingTop=-1;spacingLeft=3;spacingRight=3;rotatable=0;labelPosition=right;points=[];portConstraint=eastwest;" parent="2" vertex="1">
                    <mxGeometry y="26" width="160" height="8" as="geometry"/>
                </mxCell>
                <mxCell id="5" value="+ home_page()" style="text;strokeColor=none;fillColor=none;align=left;verticalAlign=top;spacingLeft=4;spacingRight=4;overflow=hidden;rotatable=0;points=[[0,0.5],[1,0.5]];portConstraint=eastwest;" parent="2" vertex="1">
                    <mxGeometry y="34" width="160" height="26" as="geometry"/>
                </mxCell>
                <mxCell id="7" value="+ FAQs()" style="text;strokeColor=none;fillColor=none;align=left;verticalAlign=top;spacingLeft=4;spacingRight=4;overflow=hidden;rotatable=0;points=[[0,0.5],[1,0.5]];portConstraint=eastwest;" parent="2" vertex="1">
                    <mxGeometry y="60" width="160" height="26" as="geometry"/>
                </mxCell>
                <mxCell id="6" value="+ e_services()" style="text;strokeColor=none;fillColor=none;align=left;verticalAlign=top;spacingLeft=4;spacingRight=4;overflow=hidden;rotatable=0;points=[[0,0.5],[1,0.5]];portConstraint=eastwest;" parent="2" vertex="1">
                    <mxGeometry y="86" width="160" height="26" as="geometry"/>
                </mxCell>
                <mxCell id="8" value="+ about_us()" style="text;strokeColor=none;fillColor=none;align=left;verticalAlign=top;spacingLeft=4;spacingRight=4;overflow=hidden;rotatable=0;points=[[0,0.5],[1,0.5]];portConstraint=eastwest;" parent="2" vertex="1">
                    <mxGeometry y="112" width="160" height="26" as="geometry"/>
                </mxCell>
                <mxCell id="31" value="+ member_info()" style="text;strokeColor=none;fillColor=none;align=left;verticalAlign=top;spacingLeft=4;spacingRight=4;overflow=hidden;rotatable=0;points=[[0,0.5],[1,0.5]];portConstraint=eastwest;" parent="2" vertex="1">
                    <mxGeometry y="138" width="160" height="26" as="geometry"/>
                </mxCell>
                <mxCell id="32" value="+ contact_us()" style="text;strokeColor=none;fillColor=none;align=left;verticalAlign=top;spacingLeft=4;spacingRight=4;overflow=hidden;rotatable=0;points=[[0,0.5],[1,0.5]];portConstraint=eastwest;" parent="2" vertex="1">
                    <mxGeometry y="164" width="160" height="26" as="geometry"/>
                </mxCell>
                <mxCell id="9" value="+ site_map()" style="text;strokeColor=none;fillColor=none;align=left;verticalAlign=top;spacingLeft=4;spacingRight=4;overflow=hidden;rotatable=0;points=[[0,0.5],[1,0.5]];portConstraint=eastwest;" parent="2" vertex="1">
                    <mxGeometry y="190" width="160" height="26" as="geometry"/>
                </mxCell>
                <mxCell id="34" style="edgeStyle=orthogonalEdgeStyle;rounded=0;orthogonalLoop=1;jettySize=auto;html=1;dashed=1;endArrow=block;endFill=0;" parent="1" source="10" target="2" edge="1">
                    <mxGeometry relative="1" as="geometry"/>
                </mxCell>
                <mxCell id="10" value="Pag-Ibig" style="swimlane;fontStyle=1;align=center;verticalAlign=top;childLayout=stackLayout;horizontal=1;startSize=26;horizontalStack=0;resizeParent=1;resizeParentMax=0;resizeLast=0;collapsible=1;marginBottom=0;" parent="1" vertex="1">
                    <mxGeometry x="140" y="310" width="160" height="86" as="geometry"/>
                </mxCell>
                <mxCell id="11" value="" style="line;strokeWidth=1;fillColor=none;align=left;verticalAlign=middle;spacingTop=-1;spacingLeft=3;spacingRight=3;rotatable=0;labelPosition=right;points=[];portConstraint=eastwest;" parent="10" vertex="1">
                    <mxGeometry y="26" width="160" height="8" as="geometry"/>
                </mxCell>
                <mxCell id="12" value="+ program_and_benefits()" style="text;strokeColor=none;fillColor=none;align=left;verticalAlign=top;spacingLeft=4;spacingRight=4;overflow=hidden;rotatable=0;points=[[0,0.5],[1,0.5]];portConstraint=eastwest;" parent="10" vertex="1">
                    <mxGeometry y="34" width="160" height="26" as="geometry"/>
                </mxCell>
                <mxCell id="13" value="+ properties_for_sale()" style="text;strokeColor=none;fillColor=none;align=left;verticalAlign=top;spacingLeft=4;spacingRight=4;overflow=hidden;rotatable=0;points=[[0,0.5],[1,0.5]];portConstraint=eastwest;" parent="10" vertex="1">
                    <mxGeometry y="60" width="160" height="26" as="geometry"/>
                </mxCell>
                <mxCell id="35" style="edgeStyle=orthogonalEdgeStyle;rounded=0;orthogonalLoop=1;jettySize=auto;html=1;dashed=1;endArrow=block;endFill=0;" parent="1" source="17" target="2" edge="1">
                    <mxGeometry relative="1" as="geometry"/>
                </mxCell>
                <mxCell id="17" value="SSS" style="swimlane;fontStyle=1;align=center;verticalAlign=top;childLayout=stackLayout;horizontal=1;startSize=26;horizontalStack=0;resizeParent=1;resizeParentMax=0;resizeLast=0;collapsible=1;marginBottom=0;" parent="1" vertex="1">
                    <mxGeometry x="345" y="380" width="160" height="112" as="geometry"/>
                </mxCell>
                <mxCell id="18" value="" style="line;strokeWidth=1;fillColor=none;align=left;verticalAlign=middle;spacingTop=-1;spacingLeft=3;spacingRight=3;rotatable=0;labelPosition=right;points=[];portConstraint=eastwest;" parent="17" vertex="1">
                    <mxGeometry y="26" width="160" height="8" as="geometry"/>
                </mxCell>
                <mxCell id="19" value="+ PRN()" style="text;strokeColor=none;fillColor=none;align=left;verticalAlign=top;spacingLeft=4;spacingRight=4;overflow=hidden;rotatable=0;points=[[0,0.5],[1,0.5]];portConstraint=eastwest;" parent="17" vertex="1">
                    <mxGeometry y="34" width="160" height="26" as="geometry"/>
                </mxCell>
                <mxCell id="22" value="+ RTPL_PRN()" style="text;strokeColor=none;fillColor=none;align=left;verticalAlign=top;spacingLeft=4;spacingRight=4;overflow=hidden;rotatable=0;points=[[0,0.5],[1,0.5]];portConstraint=eastwest;" parent="17" vertex="1">
                    <mxGeometry y="60" width="160" height="26" as="geometry"/>
                </mxCell>
                <mxCell id="23" value="+ logout()" style="text;strokeColor=none;fillColor=none;align=left;verticalAlign=top;spacingLeft=4;spacingRight=4;overflow=hidden;rotatable=0;points=[[0,0.5],[1,0.5]];portConstraint=eastwest;" parent="17" vertex="1">
                    <mxGeometry y="86" width="160" height="26" as="geometry"/>
                </mxCell>
                <mxCell id="36" style="edgeStyle=orthogonalEdgeStyle;rounded=0;orthogonalLoop=1;jettySize=auto;html=1;dashed=1;endArrow=block;endFill=0;" parent="1" source="24" target="2" edge="1">
                    <mxGeometry relative="1" as="geometry"/>
                </mxCell>
                <mxCell id="24" value="PhilHealth" style="swimlane;fontStyle=1;align=center;verticalAlign=top;childLayout=stackLayout;horizontal=1;startSize=26;horizontalStack=0;resizeParent=1;resizeParentMax=0;resizeLast=0;collapsible=1;marginBottom=0;" parent="1" vertex="1">
                    <mxGeometry x="550" y="323" width="160" height="60" as="geometry"/>
                </mxCell>
                <mxCell id="25" value="" style="line;strokeWidth=1;fillColor=none;align=left;verticalAlign=middle;spacingTop=-1;spacingLeft=3;spacingRight=3;rotatable=0;labelPosition=right;points=[];portConstraint=eastwest;" parent="24" vertex="1">
                    <mxGeometry y="26" width="160" height="8" as="geometry"/>
                </mxCell>
                <mxCell id="28" value="+ documents()" style="text;strokeColor=none;fillColor=none;align=left;verticalAlign=top;spacingLeft=4;spacingRight=4;overflow=hidden;rotatable=0;points=[[0,0.5],[1,0.5]];portConstraint=eastwest;" parent="24" vertex="1">
                    <mxGeometry y="34" width="160" height="26" as="geometry"/>
                </mxCell>
            </root>
        </mxGraphModel>
    </diagram>
    <diagram id="piUnyYe6ox4pedGPpz9N" name="sequence_diagram">
        <mxGraphModel dx="548" dy="461" grid="0" gridSize="10" guides="1" tooltips="1" connect="1" arrows="1" fold="1" page="1" pageScale="1" pageWidth="850" pageHeight="1100" math="0" shadow="0">
            <root>
                <mxCell id="8qu-Qaqj2T397dfKZnMz-0"/>
                <mxCell id="8qu-Qaqj2T397dfKZnMz-1" parent="8qu-Qaqj2T397dfKZnMz-0"/>
                <mxCell id="8qu-Qaqj2T397dfKZnMz-24" value="Alternative" style="shape=umlFrame;tabWidth=110;tabHeight=30;tabPosition=left;html=1;boundedLbl=1;labelInHeader=1;width=140;height=30;" parent="8qu-Qaqj2T397dfKZnMz-1" vertex="1">
                    <mxGeometry x="50" y="100" width="530" height="180" as="geometry"/>
                </mxCell>
                <mxCell id="8qu-Qaqj2T397dfKZnMz-25" value="[if user_name and passowrd is valid]" style="text;whiteSpace=wrap;" parent="8qu-Qaqj2T397dfKZnMz-24" vertex="1">
                    <mxGeometry width="100" height="50" relative="1" as="geometry">
                        <mxPoint x="20" y="40" as="offset"/>
                    </mxGeometry>
                </mxCell>
                <mxCell id="8qu-Qaqj2T397dfKZnMz-26" value="[else]" style="line;strokeWidth=1;dashed=1;labelPosition=center;verticalLabelPosition=bottom;align=left;verticalAlign=top;spacingLeft=20;spacingTop=15;" parent="8qu-Qaqj2T397dfKZnMz-24" vertex="1">
                    <mxGeometry y="123.75" width="517.4774569113115" height="7.2" as="geometry"/>
                </mxCell>
                <mxCell id="8qu-Qaqj2T397dfKZnMz-11" style="edgeStyle=orthogonalEdgeStyle;rounded=0;orthogonalLoop=1;jettySize=auto;html=1;" parent="8qu-Qaqj2T397dfKZnMz-1" source="8qu-Qaqj2T397dfKZnMz-7" target="8qu-Qaqj2T397dfKZnMz-8" edge="1">
                    <mxGeometry relative="1" as="geometry">
                        <Array as="points">
                            <mxPoint x="290" y="130"/>
                            <mxPoint x="290" y="130"/>
                        </Array>
                    </mxGeometry>
                </mxCell>
                <mxCell id="8qu-Qaqj2T397dfKZnMz-40" value="&lt;span style=&quot;color: rgba(0 , 0 , 0 , 0) ; font-family: monospace ; font-size: 0px ; background-color: rgb(248 , 249 , 250)&quot;&gt;%3CmxGraphModel%3E%3Croot%3E%3CmxCell%20id%3D%220%22%2F%3E%3CmxCell%20id%3D%221%22%20parent%3D%220%22%2F%3E%3CmxCell%20id%3D%222%22%20value%3D%22user_info%22%20style%3D%22text%3Bhtml%3D1%3Balign%3Dcenter%3BverticalAlign%3Dmiddle%3Bresizable%3D0%3Bpoints%3D%5B%5D%3Bautosize%3D1%3B%22%20vertex%3D%221%22%20parent%3D%221%22%3E%3CmxGeometry%20x%3D%2270%22%20y%3D%22110%22%20width%3D%2260%22%20height%3D%2220%22%20as%3D%22geometry%22%2F%3E%3C%2FmxCell%3E%3C%2Froot%3E%3C%2FmxGraphModel%3E&lt;/span&gt;&lt;span style=&quot;color: rgba(0 , 0 , 0 , 0) ; font-family: monospace ; font-size: 0px ; background-color: rgb(248 , 249 , 250)&quot;&gt;%3CmxGraphModel%3E%3Croot%3E%3CmxCell%20id%3D%220%22%2F%3E%3CmxCell%20id%3D%221%22%20parent%3D%220%22%2F%3E%3CmxCell%20id%3D%222%22%20value%3D%22user_info%22%20style%3D%22text%3Bhtml%3D1%3Balign%3Dcenter%3BverticalAlign%3Dmiddle%3Bresizable%3D0%3Bpoints%3D%5B%5D%3Bautosize%3D1%3B%22%20vertex%3D%221%22%20parent%3D%221%22%3E%3CmxGeometry%20x%3D%2270%22%20y%3D%22110%22%20width%3D%2260%22%20height%3D%2220%22%20as%3D%22geometry%22%2F%3E%3C%2FmxCell%3E%3C%2Froot%3E%3C%2FmxGraphModel%3Euser&amp;nbsp;&lt;/span&gt;" style="edgeLabel;html=1;align=center;verticalAlign=middle;resizable=0;points=[];" parent="8qu-Qaqj2T397dfKZnMz-11" vertex="1" connectable="0">
                    <mxGeometry x="0.1428" relative="1" as="geometry">
                        <mxPoint as="offset"/>
                    </mxGeometry>
                </mxCell>
                <mxCell id="8qu-Qaqj2T397dfKZnMz-41" value="user_info" style="edgeLabel;html=1;align=center;verticalAlign=middle;resizable=0;points=[];" parent="8qu-Qaqj2T397dfKZnMz-11" vertex="1" connectable="0">
                    <mxGeometry x="-0.1638" y="-1" relative="1" as="geometry">
                        <mxPoint x="7.5" y="-1" as="offset"/>
                    </mxGeometry>
                </mxCell>
                <mxCell id="8qu-Qaqj2T397dfKZnMz-47" style="edgeStyle=orthogonalEdgeStyle;rounded=0;orthogonalLoop=1;jettySize=auto;html=1;" parent="8qu-Qaqj2T397dfKZnMz-1" source="8qu-Qaqj2T397dfKZnMz-7" target="8qu-Qaqj2T397dfKZnMz-8" edge="1">
                    <mxGeometry relative="1" as="geometry">
                        <Array as="points">
                            <mxPoint x="250" y="300"/>
                            <mxPoint x="250" y="300"/>
                        </Array>
                    </mxGeometry>
                </mxCell>
                <mxCell id="8qu-Qaqj2T397dfKZnMz-53" value="request" style="edgeLabel;html=1;align=center;verticalAlign=middle;resizable=0;points=[];" parent="8qu-Qaqj2T397dfKZnMz-47" vertex="1" connectable="0">
                    <mxGeometry x="-0.2346" relative="1" as="geometry">
                        <mxPoint x="12.83" as="offset"/>
                    </mxGeometry>
                </mxCell>
                <mxCell id="8qu-Qaqj2T397dfKZnMz-7" value="" style="shape=umlLifeline;participant=umlActor;perimeter=lifelinePerimeter;whiteSpace=wrap;html=1;container=1;collapsible=0;recursiveResize=0;verticalAlign=top;spacingTop=36;outlineConnect=0;" parent="8qu-Qaqj2T397dfKZnMz-1" vertex="1">
                    <mxGeometry x="190" y="60" width="20" height="430" as="geometry"/>
                </mxCell>
                <mxCell id="8qu-Qaqj2T397dfKZnMz-12" value="grant_access" style="edgeStyle=orthogonalEdgeStyle;rounded=0;orthogonalLoop=1;jettySize=auto;html=1;" parent="8qu-Qaqj2T397dfKZnMz-1" source="8qu-Qaqj2T397dfKZnMz-8" target="8qu-Qaqj2T397dfKZnMz-7" edge="1">
                    <mxGeometry relative="1" as="geometry">
                        <Array as="points">
                            <mxPoint x="280" y="180"/>
                            <mxPoint x="280" y="180"/>
                        </Array>
                    </mxGeometry>
                </mxCell>
                <mxCell id="8qu-Qaqj2T397dfKZnMz-15" style="edgeStyle=orthogonalEdgeStyle;rounded=0;orthogonalLoop=1;jettySize=auto;html=1;" parent="8qu-Qaqj2T397dfKZnMz-1" source="8qu-Qaqj2T397dfKZnMz-8" target="8qu-Qaqj2T397dfKZnMz-13" edge="1">
                    <mxGeometry relative="1" as="geometry">
                        <Array as="points">
                            <mxPoint x="460" y="140"/>
                            <mxPoint x="460" y="140"/>
                        </Array>
                    </mxGeometry>
                </mxCell>
                <mxCell id="8qu-Qaqj2T397dfKZnMz-39" value="&lt;span style=&quot;font-size: 12px ; background-color: rgb(248 , 249 , 250)&quot;&gt;verify_user&lt;/span&gt;" style="edgeLabel;html=1;align=center;verticalAlign=middle;resizable=0;points=[];" parent="8qu-Qaqj2T397dfKZnMz-15" vertex="1" connectable="0">
                    <mxGeometry x="0.1338" y="-1" relative="1" as="geometry">
                        <mxPoint x="-14.5" as="offset"/>
                    </mxGeometry>
                </mxCell>
                <mxCell id="8qu-Qaqj2T397dfKZnMz-8" value=":authetication" style="shape=umlLifeline;perimeter=lifelinePerimeter;whiteSpace=wrap;html=1;container=1;collapsible=0;recursiveResize=0;outlineConnect=0;" parent="8qu-Qaqj2T397dfKZnMz-1" vertex="1">
                    <mxGeometry x="300" y="60" width="100" height="440" as="geometry"/>
                </mxCell>
                <mxCell id="8qu-Qaqj2T397dfKZnMz-10" value=":application_interface" style="shape=umlLifeline;perimeter=lifelinePerimeter;whiteSpace=wrap;html=1;container=1;collapsible=0;recursiveResize=0;outlineConnect=0;" parent="8qu-Qaqj2T397dfKZnMz-1" vertex="1">
                    <mxGeometry x="650" y="61" width="126" height="439" as="geometry"/>
                </mxCell>
                <mxCell id="8qu-Qaqj2T397dfKZnMz-17" style="edgeStyle=orthogonalEdgeStyle;rounded=0;orthogonalLoop=1;jettySize=auto;html=1;dashed=1;" parent="8qu-Qaqj2T397dfKZnMz-1" source="8qu-Qaqj2T397dfKZnMz-13" target="8qu-Qaqj2T397dfKZnMz-8" edge="1">
                    <mxGeometry relative="1" as="geometry">
                        <Array as="points">
                            <mxPoint x="470" y="170"/>
                            <mxPoint x="470" y="170"/>
                        </Array>
                    </mxGeometry>
                </mxCell>
                <mxCell id="8qu-Qaqj2T397dfKZnMz-37" value="&lt;span style=&quot;font-size: 12px ; background-color: rgb(248 , 249 , 250)&quot;&gt;verified_message&lt;/span&gt;" style="edgeLabel;html=1;align=center;verticalAlign=middle;resizable=0;points=[];" parent="8qu-Qaqj2T397dfKZnMz-17" vertex="1" connectable="0">
                    <mxGeometry x="-0.0792" y="-2" relative="1" as="geometry">
                        <mxPoint as="offset"/>
                    </mxGeometry>
                </mxCell>
                <mxCell id="8qu-Qaqj2T397dfKZnMz-49" style="edgeStyle=orthogonalEdgeStyle;rounded=0;orthogonalLoop=1;jettySize=auto;html=1;" parent="8qu-Qaqj2T397dfKZnMz-1" source="8qu-Qaqj2T397dfKZnMz-13" target="8qu-Qaqj2T397dfKZnMz-10" edge="1">
                    <mxGeometry relative="1" as="geometry">
                        <Array as="points">
                            <mxPoint x="660" y="340"/>
                            <mxPoint x="660" y="340"/>
                        </Array>
                    </mxGeometry>
                </mxCell>
                <mxCell id="8qu-Qaqj2T397dfKZnMz-13" value=":app_server" style="shape=umlLifeline;perimeter=lifelinePerimeter;whiteSpace=wrap;html=1;container=1;collapsible=0;recursiveResize=0;outlineConnect=0;" parent="8qu-Qaqj2T397dfKZnMz-1" vertex="1">
                    <mxGeometry x="520" y="60" width="100" height="440" as="geometry"/>
                </mxCell>
                <mxCell id="8qu-Qaqj2T397dfKZnMz-30" style="edgeStyle=orthogonalEdgeStyle;rounded=0;orthogonalLoop=1;jettySize=auto;html=1;" parent="8qu-Qaqj2T397dfKZnMz-1" source="8qu-Qaqj2T397dfKZnMz-13" target="8qu-Qaqj2T397dfKZnMz-8" edge="1">
                    <mxGeometry relative="1" as="geometry">
                        <mxPoint x="550.41776052962" y="250" as="sourcePoint"/>
                        <mxPoint x="391.68134753045143" y="250" as="targetPoint"/>
                        <Array as="points">
                            <mxPoint x="450" y="250"/>
                            <mxPoint x="450" y="250"/>
                        </Array>
                    </mxGeometry>
                </mxCell>
                <mxCell id="8qu-Qaqj2T397dfKZnMz-42" value="invalid_username_or_password" style="edgeLabel;html=1;align=center;verticalAlign=middle;resizable=0;points=[];" parent="8qu-Qaqj2T397dfKZnMz-30" vertex="1" connectable="0">
                    <mxGeometry x="-0.2156" y="2" relative="1" as="geometry">
                        <mxPoint x="-13.5" y="-2" as="offset"/>
                    </mxGeometry>
                </mxCell>
                <mxCell id="8qu-Qaqj2T397dfKZnMz-43" style="edgeStyle=orthogonalEdgeStyle;rounded=0;orthogonalLoop=1;jettySize=auto;html=1;" parent="8qu-Qaqj2T397dfKZnMz-1" source="8qu-Qaqj2T397dfKZnMz-8" target="8qu-Qaqj2T397dfKZnMz-7" edge="1">
                    <mxGeometry relative="1" as="geometry">
                        <mxPoint x="418.74" y="250" as="sourcePoint"/>
                        <mxPoint x="198.74" y="250" as="targetPoint"/>
                        <Array as="points">
                            <mxPoint x="320" y="260"/>
                            <mxPoint x="320" y="260"/>
                        </Array>
                    </mxGeometry>
                </mxCell>
                <mxCell id="8qu-Qaqj2T397dfKZnMz-46" value="prompt_error" style="edgeLabel;html=1;align=center;verticalAlign=middle;resizable=0;points=[];" parent="8qu-Qaqj2T397dfKZnMz-43" vertex="1" connectable="0">
                    <mxGeometry x="0.3238" y="2" relative="1" as="geometry">
                        <mxPoint x="19.5" y="-2" as="offset"/>
                    </mxGeometry>
                </mxCell>
                <mxCell id="8qu-Qaqj2T397dfKZnMz-48" style="edgeStyle=orthogonalEdgeStyle;rounded=0;orthogonalLoop=1;jettySize=auto;html=1;" parent="8qu-Qaqj2T397dfKZnMz-1" target="8qu-Qaqj2T397dfKZnMz-13" edge="1">
                    <mxGeometry relative="1" as="geometry">
                        <mxPoint x="349.99666666666656" y="320" as="sourcePoint"/>
                        <mxPoint x="499.83000000000004" y="320" as="targetPoint"/>
                        <Array as="points">
                            <mxPoint x="430" y="320"/>
                            <mxPoint x="430" y="320"/>
                        </Array>
                    </mxGeometry>
                </mxCell>
                <mxCell id="8qu-Qaqj2T397dfKZnMz-50" style="edgeStyle=orthogonalEdgeStyle;rounded=0;orthogonalLoop=1;jettySize=auto;html=1;" parent="8qu-Qaqj2T397dfKZnMz-1" source="8qu-Qaqj2T397dfKZnMz-13" target="8qu-Qaqj2T397dfKZnMz-8" edge="1">
                    <mxGeometry relative="1" as="geometry">
                        <mxPoint x="559.8299999999999" y="380" as="sourcePoint"/>
                        <mxPoint x="340" y="380" as="targetPoint"/>
                        <Array as="points">
                            <mxPoint x="450" y="360"/>
                            <mxPoint x="450" y="360"/>
                        </Array>
                    </mxGeometry>
                </mxCell>
                <mxCell id="8qu-Qaqj2T397dfKZnMz-52" style="edgeStyle=orthogonalEdgeStyle;rounded=0;orthogonalLoop=1;jettySize=auto;html=1;" parent="8qu-Qaqj2T397dfKZnMz-1" source="8qu-Qaqj2T397dfKZnMz-8" edge="1">
                    <mxGeometry relative="1" as="geometry">
                        <mxPoint x="419.83000000000004" y="390" as="sourcePoint"/>
                        <mxPoint x="200" y="380" as="targetPoint"/>
                        <Array as="points">
                            <mxPoint x="200" y="380"/>
                        </Array>
                    </mxGeometry>
                </mxCell>
                <mxCell id="8qu-Qaqj2T397dfKZnMz-54" value="response" style="edgeLabel;html=1;align=center;verticalAlign=middle;resizable=0;points=[];rotation=0;" parent="8qu-Qaqj2T397dfKZnMz-52" vertex="1" connectable="0">
                    <mxGeometry x="0.2485" y="-2" relative="1" as="geometry">
                        <mxPoint x="23.83" y="2" as="offset"/>
                    </mxGeometry>
                </mxCell>
            </root>
        </mxGraphModel>
    </diagram>
</mxfile>